<mxfile host="app.diagrams.net" modified="2024-01-03T02:31:33.936Z" agent="Mozilla/5.0 (Windows NT 10.0; Win64; x64) AppleWebKit/537.36 (KHTML, like Gecko) Chrome/120.0.0.0 Safari/537.36" etag="lYj2UwuJSlJJitigPsSM" version="22.1.16" type="device">
  <diagram name="Page-1" id="dbeDodzNAaPTGbnW9-gK">
    <mxGraphModel dx="880" dy="1526" grid="1" gridSize="10" guides="1" tooltips="1" connect="1" arrows="1" fold="1" page="1" pageScale="1" pageWidth="850" pageHeight="1100" math="0" shadow="0">
      <root>
        <mxCell id="0" />
        <mxCell id="1" parent="0" />
        <mxCell id="U3K-5iGdzpDynbkT8rkM-1" value="" style="rounded=0;whiteSpace=wrap;html=1;" parent="1" vertex="1">
          <mxGeometry x="40" y="-20" width="680" height="1030" as="geometry" />
        </mxCell>
        <mxCell id="U3K-5iGdzpDynbkT8rkM-2" value="" style="rounded=0;whiteSpace=wrap;html=1;" parent="1" vertex="1">
          <mxGeometry x="200" y="13" width="500" height="967" as="geometry" />
        </mxCell>
        <mxCell id="U3K-5iGdzpDynbkT8rkM-3" value="Author" style="shape=umlActor;verticalLabelPosition=bottom;verticalAlign=top;html=1;outlineConnect=0;" parent="1" vertex="1">
          <mxGeometry x="60" y="484" width="60" height="100" as="geometry" />
        </mxCell>
        <mxCell id="U3K-5iGdzpDynbkT8rkM-4" value="Login" style="ellipse;whiteSpace=wrap;html=1;" parent="1" vertex="1">
          <mxGeometry x="350" y="63" width="134" height="54" as="geometry" />
        </mxCell>
        <mxCell id="U3K-5iGdzpDynbkT8rkM-5" value="Display Error" style="ellipse;whiteSpace=wrap;html=1;" parent="1" vertex="1">
          <mxGeometry x="560" y="117" width="134" height="54" as="geometry" />
        </mxCell>
        <mxCell id="U3K-5iGdzpDynbkT8rkM-6" value="Check Validity" style="ellipse;whiteSpace=wrap;html=1;" parent="1" vertex="1">
          <mxGeometry x="560" y="23" width="134" height="54" as="geometry" />
        </mxCell>
        <mxCell id="U3K-5iGdzpDynbkT8rkM-12" value="Add Content" style="ellipse;whiteSpace=wrap;html=1;" parent="1" vertex="1">
          <mxGeometry x="350" y="130" width="134" height="54" as="geometry" />
        </mxCell>
        <mxCell id="U3K-5iGdzpDynbkT8rkM-13" value="Update Content" style="ellipse;whiteSpace=wrap;html=1;" parent="1" vertex="1">
          <mxGeometry x="350" y="190" width="134" height="54" as="geometry" />
        </mxCell>
        <mxCell id="U3K-5iGdzpDynbkT8rkM-14" value="Delete Content" style="ellipse;whiteSpace=wrap;html=1;" parent="1" vertex="1">
          <mxGeometry x="350" y="250" width="134" height="54" as="geometry" />
        </mxCell>
        <mxCell id="U3K-5iGdzpDynbkT8rkM-15" value="Approve Content" style="ellipse;whiteSpace=wrap;html=1;" parent="1" vertex="1">
          <mxGeometry x="350" y="310" width="134" height="54" as="geometry" />
        </mxCell>
        <mxCell id="U3K-5iGdzpDynbkT8rkM-16" value="View Content" style="ellipse;whiteSpace=wrap;html=1;" parent="1" vertex="1">
          <mxGeometry x="350" y="370" width="134" height="54" as="geometry" />
        </mxCell>
        <mxCell id="U3K-5iGdzpDynbkT8rkM-17" value="Add Category" style="ellipse;whiteSpace=wrap;html=1;" parent="1" vertex="1">
          <mxGeometry x="350" y="430" width="134" height="54" as="geometry" />
        </mxCell>
        <mxCell id="U3K-5iGdzpDynbkT8rkM-18" value="Update Category" style="ellipse;whiteSpace=wrap;html=1;" parent="1" vertex="1">
          <mxGeometry x="350" y="490" width="134" height="54" as="geometry" />
        </mxCell>
        <mxCell id="U3K-5iGdzpDynbkT8rkM-19" value="Delete Category" style="ellipse;whiteSpace=wrap;html=1;" parent="1" vertex="1">
          <mxGeometry x="350" y="550" width="134" height="54" as="geometry" />
        </mxCell>
        <mxCell id="U3K-5iGdzpDynbkT8rkM-20" value="View Category" style="ellipse;whiteSpace=wrap;html=1;" parent="1" vertex="1">
          <mxGeometry x="350" y="610" width="134" height="54" as="geometry" />
        </mxCell>
        <mxCell id="U3K-5iGdzpDynbkT8rkM-21" value="Add Comment" style="ellipse;whiteSpace=wrap;html=1;" parent="1" vertex="1">
          <mxGeometry x="350" y="730" width="134" height="54" as="geometry" />
        </mxCell>
        <mxCell id="U3K-5iGdzpDynbkT8rkM-22" value="Logout" style="ellipse;whiteSpace=wrap;html=1;" parent="1" vertex="1">
          <mxGeometry x="350" y="910" width="134" height="54" as="geometry" />
        </mxCell>
        <mxCell id="U3K-5iGdzpDynbkT8rkM-23" value="&amp;lt;&amp;lt;include&amp;gt;&amp;gt;" style="html=1;verticalAlign=bottom;labelBackgroundColor=none;endArrow=open;endFill=0;dashed=1;rounded=0;exitX=1;exitY=0;exitDx=0;exitDy=0;entryX=0.045;entryY=0.667;entryDx=0;entryDy=0;entryPerimeter=0;" parent="1" source="U3K-5iGdzpDynbkT8rkM-4" target="U3K-5iGdzpDynbkT8rkM-6" edge="1">
          <mxGeometry width="160" relative="1" as="geometry">
            <mxPoint x="420" y="173" as="sourcePoint" />
            <mxPoint x="580" y="173" as="targetPoint" />
          </mxGeometry>
        </mxCell>
        <mxCell id="U3K-5iGdzpDynbkT8rkM-24" value="&amp;lt;&amp;lt;extend&amp;gt;&amp;gt;" style="html=1;verticalAlign=bottom;labelBackgroundColor=none;endArrow=open;endFill=0;dashed=1;rounded=0;exitX=0;exitY=0.5;exitDx=0;exitDy=0;entryX=1;entryY=1;entryDx=0;entryDy=0;" parent="1" source="U3K-5iGdzpDynbkT8rkM-5" target="U3K-5iGdzpDynbkT8rkM-4" edge="1">
          <mxGeometry width="160" relative="1" as="geometry">
            <mxPoint x="420" y="173" as="sourcePoint" />
            <mxPoint x="580" y="173" as="targetPoint" />
          </mxGeometry>
        </mxCell>
        <mxCell id="U3K-5iGdzpDynbkT8rkM-25" value="" style="endArrow=none;html=1;rounded=0;exitX=1;exitY=0.3333333333333333;exitDx=0;exitDy=0;exitPerimeter=0;entryX=0;entryY=0.5;entryDx=0;entryDy=0;" parent="1" source="U3K-5iGdzpDynbkT8rkM-3" target="U3K-5iGdzpDynbkT8rkM-4" edge="1">
          <mxGeometry width="50" height="50" relative="1" as="geometry">
            <mxPoint x="400" y="403" as="sourcePoint" />
            <mxPoint x="450" y="353" as="targetPoint" />
          </mxGeometry>
        </mxCell>
        <mxCell id="U3K-5iGdzpDynbkT8rkM-31" value="" style="endArrow=none;html=1;rounded=0;entryX=0;entryY=0.5;entryDx=0;entryDy=0;exitX=1;exitY=0.3333333333333333;exitDx=0;exitDy=0;exitPerimeter=0;" parent="1" source="U3K-5iGdzpDynbkT8rkM-3" target="U3K-5iGdzpDynbkT8rkM-12" edge="1">
          <mxGeometry width="50" height="50" relative="1" as="geometry">
            <mxPoint x="160" y="323" as="sourcePoint" />
            <mxPoint x="360" y="398" as="targetPoint" />
          </mxGeometry>
        </mxCell>
        <mxCell id="U3K-5iGdzpDynbkT8rkM-32" value="" style="endArrow=none;html=1;rounded=0;entryX=0;entryY=0.5;entryDx=0;entryDy=0;exitX=1;exitY=0.3333333333333333;exitDx=0;exitDy=0;exitPerimeter=0;" parent="1" source="U3K-5iGdzpDynbkT8rkM-3" target="U3K-5iGdzpDynbkT8rkM-13" edge="1">
          <mxGeometry width="50" height="50" relative="1" as="geometry">
            <mxPoint x="170" y="333" as="sourcePoint" />
            <mxPoint x="370" y="408" as="targetPoint" />
          </mxGeometry>
        </mxCell>
        <mxCell id="U3K-5iGdzpDynbkT8rkM-33" value="" style="endArrow=none;html=1;rounded=0;entryX=0;entryY=0.5;entryDx=0;entryDy=0;exitX=1;exitY=0.3333333333333333;exitDx=0;exitDy=0;exitPerimeter=0;" parent="1" source="U3K-5iGdzpDynbkT8rkM-3" target="U3K-5iGdzpDynbkT8rkM-14" edge="1">
          <mxGeometry width="50" height="50" relative="1" as="geometry">
            <mxPoint x="160" y="323" as="sourcePoint" />
            <mxPoint x="360" y="518" as="targetPoint" />
          </mxGeometry>
        </mxCell>
        <mxCell id="U3K-5iGdzpDynbkT8rkM-34" value="" style="endArrow=none;html=1;rounded=0;entryX=0;entryY=0.5;entryDx=0;entryDy=0;exitX=1;exitY=0.3333333333333333;exitDx=0;exitDy=0;exitPerimeter=0;" parent="1" source="U3K-5iGdzpDynbkT8rkM-3" target="U3K-5iGdzpDynbkT8rkM-15" edge="1">
          <mxGeometry width="50" height="50" relative="1" as="geometry">
            <mxPoint x="160" y="323" as="sourcePoint" />
            <mxPoint x="360" y="578" as="targetPoint" />
          </mxGeometry>
        </mxCell>
        <mxCell id="U3K-5iGdzpDynbkT8rkM-35" value="" style="endArrow=none;html=1;rounded=0;entryX=0;entryY=0.5;entryDx=0;entryDy=0;exitX=1;exitY=0.3333333333333333;exitDx=0;exitDy=0;exitPerimeter=0;" parent="1" source="U3K-5iGdzpDynbkT8rkM-3" target="U3K-5iGdzpDynbkT8rkM-16" edge="1">
          <mxGeometry width="50" height="50" relative="1" as="geometry">
            <mxPoint x="160" y="323" as="sourcePoint" />
            <mxPoint x="360" y="638" as="targetPoint" />
          </mxGeometry>
        </mxCell>
        <mxCell id="U3K-5iGdzpDynbkT8rkM-36" value="" style="endArrow=none;html=1;rounded=0;entryX=0;entryY=0.5;entryDx=0;entryDy=0;exitX=1;exitY=0.3333333333333333;exitDx=0;exitDy=0;exitPerimeter=0;" parent="1" source="U3K-5iGdzpDynbkT8rkM-3" target="U3K-5iGdzpDynbkT8rkM-17" edge="1">
          <mxGeometry width="50" height="50" relative="1" as="geometry">
            <mxPoint x="170" y="333" as="sourcePoint" />
            <mxPoint x="360" y="698" as="targetPoint" />
          </mxGeometry>
        </mxCell>
        <mxCell id="U3K-5iGdzpDynbkT8rkM-37" value="" style="endArrow=none;html=1;rounded=0;entryX=0;entryY=0.5;entryDx=0;entryDy=0;exitX=1;exitY=0.3333333333333333;exitDx=0;exitDy=0;exitPerimeter=0;" parent="1" source="U3K-5iGdzpDynbkT8rkM-3" target="U3K-5iGdzpDynbkT8rkM-18" edge="1">
          <mxGeometry width="50" height="50" relative="1" as="geometry">
            <mxPoint x="180" y="343" as="sourcePoint" />
            <mxPoint x="360" y="758" as="targetPoint" />
          </mxGeometry>
        </mxCell>
        <mxCell id="U3K-5iGdzpDynbkT8rkM-38" value="" style="endArrow=none;html=1;rounded=0;entryX=0;entryY=0.5;entryDx=0;entryDy=0;exitX=1;exitY=0.3333333333333333;exitDx=0;exitDy=0;exitPerimeter=0;" parent="1" source="U3K-5iGdzpDynbkT8rkM-3" target="U3K-5iGdzpDynbkT8rkM-19" edge="1">
          <mxGeometry width="50" height="50" relative="1" as="geometry">
            <mxPoint x="190" y="353" as="sourcePoint" />
            <mxPoint x="370" y="768" as="targetPoint" />
          </mxGeometry>
        </mxCell>
        <mxCell id="U3K-5iGdzpDynbkT8rkM-39" value="" style="endArrow=none;html=1;rounded=0;entryX=0;entryY=0.5;entryDx=0;entryDy=0;exitX=1;exitY=0.3333333333333333;exitDx=0;exitDy=0;exitPerimeter=0;" parent="1" source="U3K-5iGdzpDynbkT8rkM-3" target="U3K-5iGdzpDynbkT8rkM-20" edge="1">
          <mxGeometry width="50" height="50" relative="1" as="geometry">
            <mxPoint x="160" y="323" as="sourcePoint" />
            <mxPoint x="360" y="878" as="targetPoint" />
          </mxGeometry>
        </mxCell>
        <mxCell id="U3K-5iGdzpDynbkT8rkM-40" value="" style="endArrow=none;html=1;rounded=0;entryX=0;entryY=0.5;entryDx=0;entryDy=0;exitX=1;exitY=0.3333333333333333;exitDx=0;exitDy=0;exitPerimeter=0;" parent="1" source="U3K-5iGdzpDynbkT8rkM-3" target="U3K-5iGdzpDynbkT8rkM-21" edge="1">
          <mxGeometry width="50" height="50" relative="1" as="geometry">
            <mxPoint x="170" y="333" as="sourcePoint" />
            <mxPoint x="370" y="888" as="targetPoint" />
          </mxGeometry>
        </mxCell>
        <mxCell id="U3K-5iGdzpDynbkT8rkM-41" value="" style="endArrow=none;html=1;rounded=0;entryX=0;entryY=0.5;entryDx=0;entryDy=0;exitX=1;exitY=0.3333333333333333;exitDx=0;exitDy=0;exitPerimeter=0;" parent="1" source="U3K-5iGdzpDynbkT8rkM-3" target="U3K-5iGdzpDynbkT8rkM-22" edge="1">
          <mxGeometry width="50" height="50" relative="1" as="geometry">
            <mxPoint x="180" y="343" as="sourcePoint" />
            <mxPoint x="380" y="898" as="targetPoint" />
          </mxGeometry>
        </mxCell>
        <mxCell id="p-K5vsiqBgjPiioOkkBZ-1" value="Delete Comment" style="ellipse;whiteSpace=wrap;html=1;" vertex="1" parent="1">
          <mxGeometry x="350" y="850" width="134" height="54" as="geometry" />
        </mxCell>
        <mxCell id="p-K5vsiqBgjPiioOkkBZ-2" value="View Comment" style="ellipse;whiteSpace=wrap;html=1;" vertex="1" parent="1">
          <mxGeometry x="350" y="670" width="134" height="54" as="geometry" />
        </mxCell>
        <mxCell id="p-K5vsiqBgjPiioOkkBZ-3" value="Edit Comment" style="ellipse;whiteSpace=wrap;html=1;" vertex="1" parent="1">
          <mxGeometry x="350" y="790" width="134" height="54" as="geometry" />
        </mxCell>
        <mxCell id="p-K5vsiqBgjPiioOkkBZ-4" value="" style="endArrow=none;html=1;rounded=0;entryX=0;entryY=0.5;entryDx=0;entryDy=0;exitX=1;exitY=0.3333333333333333;exitDx=0;exitDy=0;exitPerimeter=0;" edge="1" parent="1" source="U3K-5iGdzpDynbkT8rkM-3" target="p-K5vsiqBgjPiioOkkBZ-2">
          <mxGeometry width="50" height="50" relative="1" as="geometry">
            <mxPoint x="140" y="433" as="sourcePoint" />
            <mxPoint x="360" y="647" as="targetPoint" />
          </mxGeometry>
        </mxCell>
        <mxCell id="p-K5vsiqBgjPiioOkkBZ-5" value="" style="endArrow=none;html=1;rounded=0;entryX=0;entryY=0.5;entryDx=0;entryDy=0;exitX=1;exitY=0.3333333333333333;exitDx=0;exitDy=0;exitPerimeter=0;" edge="1" parent="1" source="U3K-5iGdzpDynbkT8rkM-3" target="p-K5vsiqBgjPiioOkkBZ-3">
          <mxGeometry width="50" height="50" relative="1" as="geometry">
            <mxPoint x="140" y="433" as="sourcePoint" />
            <mxPoint x="360" y="767" as="targetPoint" />
          </mxGeometry>
        </mxCell>
        <mxCell id="p-K5vsiqBgjPiioOkkBZ-6" value="" style="endArrow=none;html=1;rounded=0;entryX=0;entryY=0.5;entryDx=0;entryDy=0;exitX=1;exitY=0.3333333333333333;exitDx=0;exitDy=0;exitPerimeter=0;" edge="1" parent="1" source="U3K-5iGdzpDynbkT8rkM-3" target="p-K5vsiqBgjPiioOkkBZ-1">
          <mxGeometry width="50" height="50" relative="1" as="geometry">
            <mxPoint x="140" y="433" as="sourcePoint" />
            <mxPoint x="360" y="827" as="targetPoint" />
          </mxGeometry>
        </mxCell>
      </root>
    </mxGraphModel>
  </diagram>
</mxfile>
